<svg width="104" height="103" viewBox="0 0 104 103" fill="none" xmlns="http://www.w3.org/2000/svg">
<g filter="url(#filter0_d_360_239)">
<path fill-rule="evenodd" clip-rule="evenodd" d="M58.5209 15.0173C64.2945 17.9537 58.0861 26.6007 52.6142 29.72C53.2133 27.03 53.0308 24.3518 52.8724 22.0263L52.8724 22.0263C52.5579 17.4083 52.3381 14.1816 58.5209 15.0173ZM53.319 30.4097C56.2232 30.0528 59.0755 30.4803 61.5292 30.848C65.9011 31.5033 69.0078 31.9689 68.8887 27.4696C68.2171 22.0055 61.6575 22.3079 53.319 30.4097ZM52.5895 31.2543C53.3709 32.6862 54.0351 34.4376 54.695 36.1775C56.7445 41.5813 58.7521 46.8749 64.0959 42.1476C68.9443 37.5327 59.7419 32.338 52.5895 31.2543ZM52.2604 29.8373C51.1227 20.5802 45.983 14.6629 40.7393 18.9597C37.642 21.7761 41.8516 24.0175 46.668 26.5821C48.5757 27.5978 50.5786 28.6643 52.2604 29.8373ZM51.2923 30.5843C42.462 27.0031 33.4865 26.2441 36.1708 34.4931C39.5197 37.5489 41.7304 35.7922 44.2999 33.7504C46.2213 32.2235 48.3434 30.5372 51.2923 30.5843ZM52.7548 36.2593C52.1939 34.44 51.6331 32.6211 51.4694 31.0263C51.2866 31.2411 51.0952 31.4645 50.8971 31.6955L50.895 31.698L50.8947 31.6984C46.8487 36.4188 40.0731 44.3239 48.7601 46.6378C55.8959 46.4476 54.3249 41.352 52.7548 36.2593ZM36.8853 31.1817C37.6017 30.7062 41.3421 28.2672 43.9665 29.356C41.2547 28.2309 38.3301 28.3475 36.8853 31.1817ZM58.6271 41.9162C59.4373 42.2041 61.4715 42.3636 63.1265 40.6991C62.4968 42.1048 60.7153 44.3162 58.6271 41.9162Z" fill="white"/>
</g>
<defs>
<filter id="filter0_d_360_239" x="-2" y="0" width="109" height="104.396" filterUnits="userSpaceOnUse" color-interpolation-filters="sRGB">
<feFlood flood-opacity="0" result="BackgroundImageFix"/>
<feColorMatrix in="SourceAlpha" type="matrix" values="0 0 0 0 0 0 0 0 0 0 0 0 0 0 0 0 0 0 127 0" result="hardAlpha"/>
<feOffset dy="21"/>
<feGaussianBlur stdDeviation="17.5"/>
<feComposite in2="hardAlpha" operator="out"/>
<feColorMatrix type="matrix" values="0 0 0 0 0.4875 0 0 0 0 0.84625 0 0 0 0 1 0 0 0 0.27 0"/>
<feBlend mode="normal" in2="BackgroundImageFix" result="effect1_dropShadow_360_239"/>
<feBlend mode="normal" in="SourceGraphic" in2="effect1_dropShadow_360_239" result="shape"/>
</filter>
</defs>
</svg>
