<svg width="104" height="103" viewBox="0 0 104 103" fill="none" xmlns="http://www.w3.org/2000/svg">
<g filter="url(#filter0_d_360_330)">
<path fill-rule="evenodd" clip-rule="evenodd" d="M58.0209 15.0174C63.7945 17.9539 57.5861 26.6008 52.1142 29.7201C52.7133 27.0302 52.5308 24.3519 52.3724 22.0264L52.3724 22.0264C52.0579 17.4084 51.8381 14.1817 58.0209 15.0174ZM52.819 30.4098C55.7232 30.0529 58.5755 30.4804 61.0292 30.8482C65.4011 31.5034 68.5078 31.9691 68.3887 27.4698C67.7171 22.0056 61.1575 22.308 52.819 30.4098ZM52.0895 31.2544C52.8709 32.6863 53.5351 34.4377 54.195 36.1776C56.2445 41.5814 58.2521 46.875 63.5959 42.1477C68.4443 37.5328 59.2419 32.3381 52.0895 31.2544ZM51.7604 29.8374C50.6227 20.5803 45.483 14.6631 40.2393 18.9598C37.142 21.7762 41.3516 24.0176 46.168 26.5822C48.0757 27.5979 50.0786 28.6644 51.7604 29.8374ZM50.7923 30.5845C41.962 27.0032 32.9865 26.2442 35.6708 34.4932C39.0197 37.549 41.2304 35.7923 43.7999 33.7505C45.7213 32.2236 47.8434 30.5373 50.7923 30.5845ZM52.2548 36.2594C51.6939 34.4402 51.1331 32.6212 50.9694 31.0265C50.7866 31.2412 50.5952 31.4646 50.3971 31.6957L50.395 31.6981L50.3947 31.6985C46.3487 36.4189 39.5731 44.324 48.2601 46.638C55.3959 46.4477 53.8249 41.3521 52.2548 36.2594ZM36.3853 31.1818C37.1017 30.7063 40.8421 28.2673 43.4665 29.3561C40.7547 28.231 37.8301 28.3476 36.3853 31.1818ZM58.1271 41.9164C58.9373 42.2042 60.9715 42.3637 62.6265 40.6992C61.9968 42.1049 60.2153 44.3163 58.1271 41.9164Z" fill="white"/>
</g>
<defs>
<filter id="filter0_d_360_330" x="-2.5" y="0" width="109" height="104.396" filterUnits="userSpaceOnUse" color-interpolation-filters="sRGB">
<feFlood flood-opacity="0" result="BackgroundImageFix"/>
<feColorMatrix in="SourceAlpha" type="matrix" values="0 0 0 0 0 0 0 0 0 0 0 0 0 0 0 0 0 0 127 0" result="hardAlpha"/>
<feOffset dy="21"/>
<feGaussianBlur stdDeviation="17.5"/>
<feComposite in2="hardAlpha" operator="out"/>
<feColorMatrix type="matrix" values="0 0 0 0 0.4875 0 0 0 0 0.84625 0 0 0 0 1 0 0 0 0.27 0"/>
<feBlend mode="normal" in2="BackgroundImageFix" result="effect1_dropShadow_360_330"/>
<feBlend mode="normal" in="SourceGraphic" in2="effect1_dropShadow_360_330" result="shape"/>
</filter>
</defs>
</svg>
