<svg width="19" height="18" viewBox="0 0 19 18" fill="none" xmlns="http://www.w3.org/2000/svg">
<path fill-rule="evenodd" clip-rule="evenodd" d="M14 0H5C2.52522 0 0.5 2.02432 0.5 4.5V13.5C0.5 15.9748 2.52522 18 5 18H14C16.4748 18 18.5 15.9748 18.5 13.5V4.5C18.5 2.02432 16.4748 0 14 0ZM9.5 12.7499C7.42865 12.7499 5.74993 11.0704 5.74993 9C5.74993 6.92865 7.42865 5.24993 9.5 5.24993C11.5704 5.24993 13.2501 6.92865 13.2501 9C13.2501 11.0704 11.5704 12.7499 9.5 12.7499ZM13.2501 4.12492C13.2501 4.74615 13.7532 5.24992 14.3751 5.24992C14.997 5.24992 15.5001 4.74615 15.5001 4.12492C15.5001 3.5037 14.997 2.99992 14.3751 2.99992C13.7532 2.99992 13.2501 3.5037 13.2501 4.12492Z" fill="white"/>
</svg>
