<svg width="21" height="16" viewBox="0 0 21 16" fill="none" xmlns="http://www.w3.org/2000/svg">
<path d="M18.133 3.9968C18.146 4.1718 18.146 4.3458 18.146 4.5198C18.146 9.8448 14.093 15.9808 6.686 15.9808C4.404 15.9808 2.284 15.3198 0.5 14.1718C0.824 14.2088 1.136 14.2218 1.473 14.2218C3.356 14.2218 5.089 13.5858 6.474 12.5008C4.703 12.4638 3.219 11.3038 2.707 9.7078C2.956 9.7448 3.206 9.7698 3.468 9.7698C3.829 9.7698 4.192 9.7198 4.529 9.6328C2.682 9.2588 1.299 7.6378 1.299 5.6798V5.6298C1.836 5.9288 2.459 6.1158 3.119 6.1408C2.034 5.4188 1.323 4.1838 1.323 2.7868C1.323 2.0388 1.522 1.3528 1.871 0.754799C3.854 3.1978 6.835 4.7948 10.177 4.9698C10.115 4.6698 10.077 4.3588 10.077 4.0468C10.077 1.8268 11.873 0.0187988 14.105 0.0187988C15.265 0.0187988 16.312 0.504799 17.048 1.2908C17.958 1.1158 18.83 0.778799 19.604 0.317799C19.305 1.2528 18.668 2.0388 17.833 2.5378C18.644 2.4498 19.43 2.2258 20.152 1.9138C19.604 2.7118 18.919 3.4228 18.133 3.9968Z" fill="white"/>
</svg>
